<?xml version="1.0" encoding="UTF-8"?>
<svg version="1.1" xmlns="http://www.w3.org/2000/svg" width="1024" height="1024">
<path d="M0 0 C337.92 0 675.84 0 1024 0 C1024 337.92 1024 675.84 1024 1024 C686.08 1024 348.16 1024 0 1024 C0 686.08 0 348.16 0 0 Z " fill="#000000" transform="translate(0,0)"/>
<path d="M0 0 C337.92 0 675.84 0 1024 0 C1024 337.92 1024 675.84 1024 1024 C686.08 1024 348.16 1024 0 1024 C0 686.08 0 348.16 0 0 Z M79 78 C79 365.43 79 652.86 79 949 C364.78 949 650.56 949 945 949 C945 661.57 945 374.14 945 78 C659.22 78 373.44 78 79 78 Z " fill="#FBFBFB" transform="translate(0,0)"/>
<path d="M0 0 C0.66 0 1.32 0 2 0 C3.38083664 1.97172096 4.60519818 3.92305435 5.8125 6 C6.20066895 6.66080566 6.58883789 7.32161133 6.98876953 8.00244141 C8.34071237 10.32673303 9.67268864 12.66155609 11 15 C11.50031738 15.87881836 12.00063477 16.75763672 12.51611328 17.66308594 C30.75497273 49.92880518 43.76954766 83.62142399 51 120 C51.19819336 120.99080566 51.39638672 121.98161133 51.60058594 123.00244141 C53.64937347 133.45540377 55.22063953 143.8910617 56.1875 154.5 C56.31813843 155.87647705 56.31813843 155.87647705 56.45141602 157.28076172 C56.80101919 161.27281786 57.0557159 165.1451823 56.8125 169.1484375 C56.60393388 175.36631487 57.0342729 179.27551212 61.2578125 183.9453125 C63.27699732 186.01323972 65.34090679 188.02757867 67.41455078 190.04077148 C73.18375121 195.77335304 75.27594133 200.54685462 76.57373047 208.64111328 C77.50093728 213.77208246 78.87502283 218.8150423 80.125 223.875 C80.63057921 225.97584877 81.13329113 228.07739012 81.6328125 230.1796875 C81.8692749 231.16622314 82.1057373 232.15275879 82.34936523 233.16918945 C82.76650282 234.98409013 83.15659845 236.80554483 83.51196289 238.63354492 C84.56466429 244.26018571 84.56466429 244.26018571 88.1875 248.5625 C90.62225694 250.68657476 92.78526854 252.84000252 94.84960938 255.32226562 C99.99328916 261.2645944 105.62185649 266.73223987 111.1934967 272.2686615 C113.25671313 274.31897573 115.31666812 276.37251866 117.37585449 278.42687988 C121.74775359 282.78741743 126.12357646 287.14400401 130.5 291.5 C135.57617701 296.55248326 140.65068129 301.60662342 145.72096252 306.6650238 C147.73895718 308.67659187 149.75996659 310.68509595 151.78112793 312.69348145 C162.84954435 323.7181146 162.84954435 323.7181146 167.60966492 329.38014221 C170.33949408 332.56062372 173.34084697 335.48499834 176.3125 338.4375 C176.93189453 339.06076172 177.55128906 339.68402344 178.18945312 340.32617188 C178.78306641 340.91849609 179.37667969 341.51082031 179.98828125 342.12109375 C180.51977783 342.6514624 181.05127441 343.18183105 181.59887695 343.72827148 C182.99388405 345.10943585 182.99388405 345.10943585 185 346 C185 339.07 185 332.14 185 325 C192.87021443 329.49726539 192.87021443 329.49726539 195.23828125 331.54296875 C195.74810547 331.97673828 196.25792969 332.41050781 196.78320312 332.85742188 C197.54020508 333.51581055 197.54020508 333.51581055 198.3125 334.1875 C201.92647163 337.42288258 201.92647163 337.42288258 206 340 C206.42201604 354.50753992 206.73741854 369.0141185 206.93261909 383.52655315 C207.02513053 390.26662496 207.15101449 397.0028673 207.35791016 403.74047852 C207.55436566 410.25073735 207.66128216 416.7570339 207.70779037 423.27002907 C207.74090168 425.74677746 207.80557416 428.22332257 207.90314102 430.69836998 C208.62007772 449.649501 208.62007772 449.649501 204.14736176 455.36911392 C199.34537222 459.86383005 193.90963421 463.15896541 188 466 C185.18328105 463.18328105 185.40492957 460.86155162 184.9375 456.9375 C184.78152344 455.66777344 184.62554688 454.39804687 184.46484375 453.08984375 C183.96293641 448.72810707 183.47986772 444.36421089 183 440 C181.98800537 440.14099121 180.97601074 440.28198242 179.93334961 440.42724609 C176.10333248 440.96072516 172.27323486 441.49362452 168.44311523 442.02636719 C166.79953925 442.25505534 165.15598384 442.48389141 163.51245117 442.71289062 C159.52595947 443.26829552 155.53919232 443.82151901 151.55175781 444.37011719 C148.70582102 444.76183111 145.86159404 445.16301277 143.01855469 445.57519531 C136.74010336 446.46224256 130.54528589 447.11863715 124.2109375 447.4375 C108.91959257 447.88329094 108.91959257 447.88329094 96.17578125 455.16015625 C93.28177292 458.87811642 90.94015685 462.81285626 88.9284668 467.07055664 C88 469 88 469 86 472 C85.67 476.95 85.34 481.9 85 487 C29.56 487 -25.88 487 -83 487 C-83.495 479.575 -83.495 479.575 -84 472 C-86.0770516 468.16805174 -87.72669295 465.48557291 -90.4375 462.25 C-91.03626953 461.48429687 -91.63503906 460.71859375 -92.25195312 459.9296875 C-93.35138888 458.52615249 -94.46420576 457.13290155 -95.59545898 455.75488281 C-97 454 -97 454 -99 451 C-101.69175723 450.40290757 -104.21783862 449.9936498 -106.9453125 449.68359375 C-107.74798553 449.58160172 -108.55065857 449.47960968 -109.37765503 449.37452698 C-111.9587127 449.04954315 -114.54160133 448.74325759 -117.125 448.4375 C-118.81135127 448.22844685 -120.49755168 448.01817298 -122.18359375 447.80664062 C-125.52262845 447.38984764 -128.86247439 446.98095391 -132.20336914 446.5793457 C-136.59732926 446.05092784 -140.98827034 445.50055553 -145.37890625 444.9453125 C-153.66927992 443.90563175 -161.97026753 442.97006364 -170.27539062 442.05664062 C-171.91217773 441.87198242 -171.91217773 441.87198242 -173.58203125 441.68359375 C-174.55374268 441.57587646 -175.5254541 441.46815918 -176.52661133 441.35717773 C-179 441 -179 441 -182 440 C-182.33 448.91 -182.66 457.82 -183 467 C-185.75105848 465.62447076 -187.91618471 464.44828258 -190.34765625 462.6875 C-190.95287109 462.25179688 -191.55808594 461.81609375 -192.18164062 461.3671875 C-192.80232422 460.91601562 -193.42300781 460.46484375 -194.0625 460 C-198.98744445 456.43761598 -198.98744445 456.43761598 -204 453 C-204.41662979 451.02545452 -204.41662979 451.02545452 -204.47515869 448.55705261 C-204.5038504 447.62229095 -204.53254211 446.6875293 -204.56210327 445.72444153 C-204.57802521 444.69542221 -204.59394714 443.66640289 -204.61035156 442.60620117 C-204.63809662 441.52463745 -204.66584167 440.44307373 -204.69442749 439.32873535 C-204.779357 435.73357164 -204.83853784 432.13875282 -204.890625 428.54296875 C-204.90909233 427.31434931 -204.92755966 426.08572987 -204.94658661 424.81987953 C-205.02910996 418.98028454 -205.09615653 413.14083318 -205.14347291 407.30084628 C-205.193549 401.24842774 -205.28610961 395.20018931 -205.44726562 389.1496582 C-205.61753619 382.64986761 -205.70329393 376.15401156 -205.7297287 369.65209389 C-205.75348241 367.18110545 -205.80617901 364.71021022 -205.88910675 362.2404995 C-206.48568381 343.43280522 -206.48568381 343.43280522 -202.31010437 337.66620255 C-196.71008263 332.02435009 -190.03725941 328.51862971 -183 325 C-182.67 331.27 -182.34 337.54 -182 344 C-179.86317976 344.21772718 -179.86317976 344.21772718 -178.23168945 342.47460938 C-177.18307739 341.41983398 -177.18307739 341.41983398 -176.11328125 340.34375 C-175.33919922 339.56773437 -174.56511719 338.79171875 -173.76757812 337.9921875 C-172.95740234 337.16976563 -172.14722656 336.34734375 -171.3125 335.5 C-170.52166016 334.70851563 -169.73082031 333.91703125 -168.91601562 333.1015625 C-165.53158481 329.69197902 -162.22752428 326.27365428 -159.11791992 322.61132812 C-153.91781532 316.63721794 -148.23611023 311.1260327 -142.62130737 305.54614258 C-140.52448784 303.46222167 -138.43092634 301.37507491 -136.33813477 299.28710938 C-131.14253807 294.10480009 -125.94148576 288.92797739 -120.74060059 283.75097656 C-116.33516378 279.36534859 -111.93183415 274.97762493 -107.53121948 270.5871582 C-105.47998551 268.54235237 -103.42573709 266.50060936 -101.37133789 264.45898438 C-89.29509396 253.74997337 -89.29509396 253.74997337 -82 240 C-81.53980469 238.28731934 -81.53980469 238.28731934 -81.0703125 236.54003906 C-80.75835937 235.29448242 -80.44640625 234.04892578 -80.125 232.765625 C-79.95500488 232.08755798 -79.78500977 231.40949097 -79.60986328 230.71087646 C-79.25242437 229.28247474 -78.8961605 227.85377851 -78.54101562 226.42480469 C-78.00479892 224.26929098 -77.46360934 222.11507023 -76.921875 219.9609375 C-76.57258917 218.56258176 -76.22362631 217.16414531 -75.875 215.765625 C-75.70405319 215.08534241 -75.53310638 214.40505981 -75.35697937 213.7041626 C-74.42597737 209.94180657 -73.68451645 206.2018768 -73.08203125 202.375 C-72.17235399 197.63672479 -70.13125708 195.02454193 -66.6875 191.75 C-65.73176112 190.78775949 -64.77732871 189.82421955 -63.82421875 188.859375 C-63.40229248 188.45170898 -62.98036621 188.04404297 -62.5456543 187.62402344 C-62.03558838 187.0880957 -61.52552246 186.55216797 -61 186 C-60.13673096 185.1037793 -59.27346191 184.20755859 -58.3840332 183.28417969 C-55.58740829 179.87877567 -55.26366138 177.00956623 -55.03125 172.59375 C-54.98558899 171.88475555 -54.93992798 171.17576111 -54.8928833 170.44528198 C-54.79550523 168.92327974 -54.70741253 167.40065976 -54.62780762 165.87762451 C-54.40929886 161.81267301 -54.10303156 157.75446415 -53.796875 153.6953125 C-53.73574524 152.87414948 -53.67461548 152.05298645 -53.6116333 151.2069397 C-49.66154813 100.44249742 -31.02211066 49.88931652 -4.4375 6.6875 C-4.01976318 6.00486084 -3.60202637 5.32222168 -3.17163086 4.61889648 C-2.17274418 3.04080074 -1.09404549 1.51367938 0 0 Z " fill="#F4F4F4" transform="translate(511,203)"/>
<path d="M0 0 C4.01760783 1.33920261 4.30181041 2.91288243 6.22265625 6.6328125 C6.52437241 7.21260361 6.82608856 7.79239471 7.13694763 8.38975525 C8.12356749 10.29586582 9.09400214 12.20962466 10.0625 14.125 C10.39636719 14.77870575 10.73023438 15.4324115 11.07421875 16.10592651 C28.23003743 49.71557621 39.52626355 83.82822296 46 121 C46.12890625 121.7321875 46.2578125 122.464375 46.390625 123.21875 C49.02033419 138.49610817 49.14771816 154.10886831 49.19287109 169.57446289 C49.2008075 171.13931951 49.20907834 172.70417445 49.21765137 174.26902771 C49.24346777 179.3368871 49.25913991 184.40475312 49.2734375 189.47265625 C49.27881419 191.24199359 49.28419165 193.01133092 49.28956985 194.78066826 C49.31114111 202.15957082 49.32986422 209.53847156 49.34119225 216.9173975 C49.35735575 227.36382251 49.39041463 237.80987154 49.44759309 248.25615507 C49.48675419 255.67268311 49.50587859 263.08911261 49.51111281 270.50574106 C49.51470454 274.90031776 49.52604217 279.29449016 49.55921555 283.68895149 C49.75972455 311.60931109 46.74505091 337.86681571 40.98291016 365.21435547 C38.98439929 374.784326 37.3777757 384.43442497 35.6875 394.0625 C35.49568146 395.1507608 35.30386292 396.23902161 35.10623169 397.36026001 C31.19940522 419.54202714 27.5673601 441.76092535 24 464 C8.82 464 -6.36 464 -22 464 C-24.25 449.8125 -24.25 449.8125 -24.93066406 445.48754883 C-26.15222566 437.8538085 -27.50256882 430.25787122 -28.97265625 422.66796875 C-31.25215316 410.88117295 -33.17531985 399.04770945 -35.01104736 387.18449402 C-36.53519918 377.44729166 -38.20629589 367.79168489 -40.31469727 358.16333008 C-48.79306516 318.21995052 -48.18511351 278.45796092 -47.81786853 237.82461035 C-47.74201909 229.12334187 -47.72464247 220.42240231 -47.7127037 211.72085094 C-47.70067878 203.26695985 -47.66328408 194.8132054 -47.62166309 186.35941529 C-47.60955124 183.7065699 -47.6006854 181.05372879 -47.59227753 178.40086937 C-47.52176763 159.40647836 -47.1266624 140.79247386 -44 122 C-43.88589059 121.3077555 -43.77178118 120.615511 -43.65421391 119.90228939 C-43.05592531 116.33268021 -42.37748865 112.79022345 -41.625 109.25 C-41.41077393 108.21818604 -41.19654785 107.18637207 -40.97583008 106.12329102 C-40.3341296 103.07820739 -39.67275433 100.03836055 -39 97 C-38.71020264 95.68588135 -38.71020264 95.68588135 -38.41455078 94.34521484 C-30.89275123 60.89555846 -17.3239003 29.48748988 0 0 Z " fill="#040404" transform="translate(511,218)"/>
<path d="M0 0 C0.75539063 -0.01546875 1.51078125 -0.0309375 2.2890625 -0.046875 C8.96357365 -0.00100207 14.20356981 1.91828657 19.13671875 6.47265625 C29.35813645 20.24711084 32.67453456 36.00472405 35.75 52.5625 C35.97300781 53.73353271 36.19601562 54.90456543 36.42578125 56.11108398 C39.00030964 70.56345818 37.67364535 83.10987103 34.8125 97.3125 C34.49100577 98.95481348 34.17045837 100.59731258 33.85083008 102.23999023 C31.85554995 112.44075363 29.79134298 122.63000827 27.59887695 132.7902832 C26.38046297 138.4639079 25.42234434 144.12396552 24.64135742 149.87573242 C23.51101701 154.50079107 20.76792918 156.79109105 17 159.5 C16.01694885 159.90669922 15.03389771 160.31339844 14.02105713 160.73242188 C10.32646439 162.45280206 7.30966491 164.10904027 5 167.5 C2.66317472 175.04400255 3.46660792 183.45337983 3.609375 191.25 C3.60931864 193.59269798 3.60397288 195.9354013 3.59356689 198.27807617 C3.58040724 204.42756467 3.63887969 210.57434687 3.71246338 216.72332764 C3.77489043 223.00430089 3.76931885 229.28517728 3.76953125 235.56640625 C3.77993889 247.87845596 3.86604879 260.18871781 4 272.5 C4.94689697 272.80615234 5.89379395 273.11230469 6.86938477 273.42773438 C15.32545655 276.32401974 20.78004357 282.83039665 25 290.5 C29.92105516 301.79050599 28.6288466 314.46269486 26.734375 326.31640625 C26.46050739 328.08467541 26.18692308 329.85298846 25.91357422 331.62133789 C25.76611755 332.56623077 25.61866089 333.51112366 25.46673584 334.48464966 C24.6199662 339.95521119 23.80952008 345.43122848 22.9921875 350.90625 C22.46556401 354.41528579 21.93812104 357.92419781 21.41064453 361.43310547 C21.04926229 363.8395752 20.6886017 366.2461534 20.32861328 368.65283203 C19.8016254 372.17508076 19.27216256 375.69694967 18.7421875 379.21875 C18.58176971 380.29467407 18.42135193 381.37059814 18.256073 382.47912598 C18.03046188 383.97349182 18.03046188 383.97349182 17.80029297 385.49804688 C17.66944305 386.37037964 17.53859314 387.2427124 17.40377808 388.14147949 C17.03751019 390.28089807 16.5264344 392.39426241 16 394.5 C5.44 394.5 -5.12 394.5 -16 394.5 C-18.78279116 378.11245205 -21.47930711 361.75372271 -23.74316406 345.28808594 C-23.89495117 344.19012695 -24.04673828 343.09216797 -24.203125 341.9609375 C-24.33364258 340.99978027 -24.46416016 340.03862305 -24.59863281 339.04833984 C-24.9506849 336.81310888 -25.44337299 334.68998029 -26 332.5 C-28.45471043 314.58240561 -30.74331369 297.17099561 -19.140625 281.734375 C-15.35985892 277.78802793 -10.87134389 274.9397112 -6 272.5 C-5.34 272.5 -4.68 272.5 -4 272.5 C-3.82928121 258.96502463 -3.72890995 245.43151165 -3.71759319 231.89540958 C-3.71014317 225.60933824 -3.67874345 219.32531237 -3.59204102 213.03979492 C-3.5092061 206.97009691 -3.49002724 200.90318688 -3.51441383 194.83300591 C-3.51262599 192.52092016 -3.48814973 190.20873394 -3.44031334 187.89714241 C-2.68427187 176.29361115 -2.68427187 176.29361115 -6.28860474 165.66750908 C-9.72511516 162.34011578 -13.66932393 160.48910876 -18 158.5 C-24.77857518 153.12224405 -25.54464256 146.2852412 -26.875 138.0625 C-27.23109866 136.01450871 -27.59507813 133.96800945 -27.9593811 131.92146301 C-28.21868812 130.46179817 -28.47527983 129.00164869 -28.7293396 127.5410614 C-29.75605257 121.68664884 -30.93250039 115.87080964 -32.15625 110.0546875 C-32.52756759 108.2740199 -32.8988242 106.49333958 -33.27001953 104.71264648 C-33.81497991 102.10165554 -34.36334615 99.49167766 -34.92425537 96.88406372 C-37.95310423 82.75638867 -39.06648967 69.84340242 -36.375 55.5 C-36.1989624 54.53304199 -36.0229248 53.56608398 -35.84155273 52.56982422 C-34.50451511 45.52227209 -32.89225837 38.56031716 -31.0625 31.625 C-30.8341748 30.74070312 -30.60584961 29.85640625 -30.37060547 28.9453125 C-28.70199157 22.92683432 -26.26571901 17.81380391 -23 12.5 C-22.49855469 11.67886719 -21.99710937 10.85773438 -21.48046875 10.01171875 C-21.05378906 9.40972656 -20.62710937 8.80773437 -20.1875 8.1875 C-19.76855469 7.57261719 -19.34960938 6.95773437 -18.91796875 6.32421875 C-13.41651117 1.09167152 -7.37791113 -0.1510835 0 0 Z " fill="#F5F5F5" transform="translate(512,280.5)"/>
<path d="M0 0 C1.17067017 1.18227173 1.17067017 1.18227173 2.36499023 2.38842773 C4.85510102 4.93489248 4.85510102 4.93489248 7.16015625 6.78515625 C9.84503083 10.01726642 10.49048587 13.398388 11.4375 17.4375 C11.64286377 18.26427246 11.84822754 19.09104492 12.05981445 19.94287109 C12.7214785 22.62518432 13.36170993 25.31203665 14 28 C14.45256531 29.86862522 14.90569219 31.73711453 15.359375 33.60546875 C16.21074139 37.13335099 17.05524776 40.66268628 17.88671875 44.1953125 C18.08144775 44.99751221 18.27617676 45.79971191 18.47680664 46.6262207 C19 49 19 49 19.31811523 51.33276367 C20.35571153 58.17269806 23.67943614 61.49698822 28.6875 66.0625 C30.08969223 67.38412141 31.4894463 68.70833452 32.88671875 70.03515625 C33.50764404 70.6062915 34.12856934 71.17742676 34.76831055 71.76586914 C36.57156366 73.57109496 38.19389533 75.38641013 39.84106445 77.32788086 C45.10508525 83.39495959 50.87004342 88.98004442 56.56388855 94.63905334 C58.69431126 96.75658088 60.82147922 98.8773315 62.94787598 100.99890137 C67.46243603 105.50209648 71.98091876 110.00134263 76.5 114.5 C81.74138632 119.71769801 86.98110377 124.93704956 92.21659851 130.16065979 C94.30107178 132.23870342 96.38855921 134.31368535 98.47619629 136.3885498 C109.62231516 147.49201619 109.62231516 147.49201619 114.68203735 153.45495605 C116.48889102 155.57312559 118.42673186 157.53970293 120.40234375 159.5 C121.14677734 160.24121094 121.89121094 160.98242188 122.65820312 161.74609375 C123.41037109 162.48988281 124.16253906 163.23367188 124.9375 164 C126.10635742 165.16208984 126.10635742 165.16208984 127.29882812 166.34765625 C129.19691161 168.23409505 131.09812736 170.11738141 133 172 C133.66 164.74 134.32 157.48 135 150 C140 152 140 152 141 153 C141.10396565 154.35900324 141.13960163 155.72332002 141.14717102 157.08627319 C141.15790398 158.40706123 141.15790398 158.40706123 141.16885376 159.75453186 C141.17154266 160.72805099 141.17423157 161.70157013 141.17700195 162.70458984 C141.18357315 163.7240419 141.19014435 164.74349396 141.19691467 165.7938385 C141.21670001 169.18287214 141.22832101 172.5718614 141.23828125 175.9609375 C141.24235678 177.11469501 141.2464323 178.26845253 141.25063133 179.45717239 C141.271513 185.56194126 141.28580644 191.66668749 141.29516602 197.77148438 C141.30624348 204.09265394 141.34065312 210.41347272 141.38033772 216.73451805 C141.40642024 221.58141761 141.41485033 226.4282325 141.41844749 231.27519608 C141.42333401 233.60608925 141.4350061 235.93697815 141.45348549 238.26780319 C141.47770213 241.52436269 141.47694392 244.78000009 141.4699707 248.03662109 C141.48918579 249.4908271 141.48918579 249.4908271 141.50878906 250.97441101 C141.45773586 257.48978433 141.45773586 257.48978433 139.09562683 260.12271118 C137 261 137 261 135 261 C133.84162342 250.57852858 133.8841059 240.21725935 133.9375 229.75 C133.94252757 228.02213672 133.94708824 226.29427202 133.95117188 224.56640625 C133.96207203 220.37756832 133.97926652 216.18880033 134 212 C133.21818359 211.94956543 132.43636719 211.89913086 131.63085938 211.84716797 C123.52254577 211.27987508 115.53709415 210.32363803 107.5 209.125 C105.02214305 208.76296855 102.54427841 208.40098977 100.06640625 208.0390625 C98.86129395 207.86149414 97.65618164 207.68392578 96.41455078 207.50097656 C92.58334927 206.93886978 88.7500943 206.39264534 84.91601562 205.85058594 C75.77270927 204.55726561 66.63568761 203.22096661 57.5 201.875 C56.33525146 201.70419922 55.17050293 201.53339844 53.97045898 201.35742188 C52.32992554 201.11475586 52.32992554 201.11475586 50.65625 200.8671875 C49.68494141 200.72394043 48.71363281 200.58069336 47.71289062 200.43310547 C46.81763672 200.29018066 45.92238281 200.14725586 45 200 C44.13407227 199.93458008 43.26814453 199.86916016 42.37597656 199.80175781 C38.83278678 198.6061315 38.0973146 196.53751474 36.328125 193.3046875 C36.00140808 192.72018829 35.67469116 192.13568909 35.33807373 191.53347778 C34.29262291 189.65570426 33.27079348 187.76627126 32.25 185.875 C31.26289371 184.08073862 30.2712769 182.28908232 29.27677631 180.49890995 C28.59485534 179.26405274 27.91882911 178.02590743 27.25083447 176.78346157 C25.52873764 173.61021497 23.7519912 170.57119579 21.65168762 167.63233948 C14.64530592 157.60452108 13.77146418 149.48288221 14.12109375 137.47265625 C14.13792991 135.74534971 14.15071733 134.01799948 14.15968323 132.29063416 C14.19365643 127.79656248 14.28170567 123.30520962 14.38201904 118.81219482 C14.47494773 114.20655073 14.51537262 109.60045679 14.56054688 104.99414062 C14.65637631 95.99491473 14.80948517 86.99768548 15 78 C12.69 78 10.38 78 8 78 C7.78042663 88.11207978 7.64661341 98.22164497 7.61396885 108.33614922 C7.59628084 113.03630204 7.5521307 117.73269124 7.44116211 122.43164062 C6.86599556 147.84678522 8.65651179 164.03245081 24 185 C34.31624882 199.81414074 37.83393984 211.16317917 37.23486328 229.30664062 C37.12371143 232.79038671 37.11181927 236.26464603 37.11328125 239.75 C37.0838292 241.99487375 37.0488762 244.23968363 37.0078125 246.484375 C36.99779709 248.02203522 36.99779709 248.02203522 36.98757935 249.59075928 C36.7098603 256.64720486 34.91669498 261.77768667 30 267 C29.34 267 28.68 267 28 267 C28.03410477 266.45211319 28.06820953 265.90422638 28.10334778 265.33973694 C30.05338217 231.86554695 26.43837033 208.00138973 8.69482422 179.39868164 C5.93078015 174.92910909 3.33113155 170.38570839 0.8203125 165.76953125 C0.43456055 165.08535126 0.04880859 164.40117126 -0.34863281 163.69625854 C-3.60048419 157.63499158 -3.61424283 152.66622501 -2 146 C-1.22825798 141.9405962 -0.86773266 138.09345407 -0.84178162 133.96353149 C-0.8319928 132.77730194 -0.82220398 131.59107239 -0.81211853 130.36889648 C-0.80636307 129.08136475 -0.8006076 127.79383301 -0.79467773 126.46728516 C-0.78508951 125.08710442 -0.77507889 123.70692657 -0.76467896 122.32675171 C-0.73772607 118.59170742 -0.71666468 114.85665062 -0.69667697 111.12156343 C-0.67475785 107.21378094 -0.64739824 103.30603659 -0.62062073 99.39828491 C-0.57077378 92.00365166 -0.52580539 84.60899715 -0.48259836 77.21432245 C-0.43315749 68.79352029 -0.37826483 60.37275641 -0.32291877 51.95199132 C-0.20922156 34.6346963 -0.10235598 17.31736569 0 0 Z " fill="#040303" transform="translate(568,394)"/>
<path d="M0 0 C0.00496522 1.06845689 0.00496522 1.06845689 0.01003075 2.15849876 C0.09138216 19.5200957 0.18351406 36.88160226 0.28752708 54.24307823 C0.33756995 62.63908456 0.38401358 71.03508152 0.421875 79.43115234 C0.45489848 86.75232093 0.49478632 94.07341508 0.54279006 101.39450133 C0.56795248 105.26808742 0.58976356 109.14162479 0.60334396 113.01527023 C0.61625805 116.66784091 0.63841117 120.32024361 0.66738319 123.9727211 C0.68065076 125.9388529 0.68436231 127.90504208 0.68769836 129.87121582 C0.74596108 136.09089872 1.11508539 141.89529025 2.53136635 147.9616642 C4.29728838 155.64259382 1.70646222 160.32480669 -1.9375 166.875 C-3.02897197 168.89886233 -4.11870565 170.92366274 -5.20703125 172.94921875 C-5.80725098 174.0582959 -6.4074707 175.16737305 -7.02587891 176.31005859 C-10.43289284 182.64489753 -13.6949571 189.05626269 -16.97903442 195.4553833 C-18.1131142 197.66434879 -19.24941169 199.87215864 -20.38647461 202.07958984 C-21.0936194 203.45278292 -21.80073345 204.82599182 -22.5078125 206.19921875 C-22.83130173 206.82746048 -23.15479095 207.45570221 -23.48808289 208.10298157 C-24.3271412 209.73442086 -25.16369521 211.36714749 -26 213 C-26.35636536 213.62407242 -26.71273071 214.24814484 -27.07989502 214.89112854 C-28.1548034 217.35480786 -28.27648812 219.17758107 -28.31884766 221.86035156 C-28.33871735 222.82104553 -28.35858704 223.7817395 -28.37905884 224.77154541 C-28.39061005 225.80084167 -28.40216125 226.83013794 -28.4140625 227.890625 C-28.43342865 228.95037537 -28.4527948 230.01012573 -28.4727478 231.10198975 C-28.53249554 234.48457813 -28.5789102 237.86720063 -28.625 241.25 C-28.66318416 243.54428562 -28.70223615 245.83855697 -28.7421875 248.1328125 C-28.83819315 253.75508162 -28.92325483 259.37743677 -29 265 C-36.21267942 257.97712794 -36.21267942 257.97712794 -36.38574219 252.17163086 C-36.41786804 251.1888768 -36.4499939 250.20612274 -36.48309326 249.19358826 C-36.57296124 244.64431234 -36.65433938 240.09561595 -36.70019531 235.5456543 C-36.73303329 233.1666716 -36.78723613 230.7878744 -36.86425781 228.40991211 C-37.36340215 212.89845926 -36.29448201 201.84773645 -27.33898926 188.96115112 C-25.24331048 185.89171441 -23.43908065 182.66490856 -21.59375 179.44140625 C-20.90893656 178.28161261 -20.22148205 177.12337391 -19.53125 175.96679688 C-18.14306826 173.64025767 -16.75740976 171.31237951 -15.375 168.98242188 C-10.31299603 160.46949405 -10.31299603 160.46949405 -8 157 C-7.78729262 154.40458534 -7.68876181 151.91279046 -7.68115234 149.31567383 C-7.67110672 148.5349501 -7.6610611 147.75422638 -7.65071106 146.94984436 C-7.61981679 144.36891416 -7.60282671 141.78808798 -7.5859375 139.20703125 C-7.56723086 137.41769003 -7.54765783 135.62835768 -7.5272522 133.83903503 C-7.47587169 129.12909161 -7.43627769 124.41911957 -7.39910889 119.70904541 C-7.35910631 114.90296312 -7.3079969 110.09700048 -7.2578125 105.29101562 C-7.16098316 95.86076107 -7.07660082 86.43043904 -7 77 C-9.64 77 -12.28 77 -15 77 C-14.97113205 77.92833649 -14.9422641 78.85667297 -14.91252136 79.81314087 C-14.64944258 88.664845 -14.45283965 97.51519367 -14.32644176 106.36994362 C-14.25926372 110.92006961 -14.168557 115.46690493 -14.01928711 120.01513672 C-13.34230554 141.19877547 -12.98717887 157.46678434 -26.52261353 174.96051025 C-28.57418457 177.79264537 -29.71742404 180.55217216 -30.953125 183.8203125 C-33.38270067 189.71274376 -35.95569065 194.93265973 -41 199 C-49.08423549 202.23216839 -58.01926277 202.24353498 -66.62191772 202.58343506 C-75.76620937 202.97983438 -84.75676686 204.36167787 -93.80145264 205.70703125 C-98.29406459 206.37207106 -102.79166202 207.00112677 -107.2890625 207.6328125 C-108.1212027 207.75045959 -108.9533429 207.86810669 -109.81069946 207.98931885 C-115.08786251 208.73503411 -120.36651436 209.46843444 -125.6484375 210.1796875 C-126.83356934 210.33937012 -128.01870117 210.49905273 -129.23974609 210.66357422 C-132 211 -132 211 -134 211 C-133.99476318 211.88034912 -133.98952637 212.76069824 -133.98413086 213.66772461 C-133.81727622 245.97627512 -133.81727622 245.97627512 -135 260 C-137 259 -139 258 -141 257 C-141.11570103 243.36160355 -141.20461767 229.72332328 -141.25906086 216.08453655 C-141.28518708 209.75190114 -141.32064122 203.41960076 -141.37719727 197.0871582 C-141.43140777 190.97931933 -141.46139773 184.87180328 -141.47438622 178.76374245 C-141.48364572 176.43003059 -141.50172678 174.09633698 -141.52865028 171.76276207 C-141.56479373 168.5011982 -141.56995136 165.24097899 -141.56762695 161.97924805 C-141.58560333 161.00820633 -141.60357971 160.03716461 -141.62210083 159.03669739 C-141.60311137 156.58442831 -141.56328208 154.38670819 -141 152 C-138.46452332 149.876297 -138.46452332 149.876297 -136 149 C-133.6520257 156.33741969 -133.80644787 163.34393782 -134 171 C-126.42193519 164.60733081 -119.25117047 157.8015728 -112.7824707 150.28027344 C-109.30001896 146.29084255 -105.64965089 142.52058984 -101.890625 138.79296875 C-100.88183289 137.78636703 -100.88183289 137.78636703 -99.85266113 136.75942993 C-98.40627216 135.3168177 -96.95873019 133.87536071 -95.51013184 132.43496704 C-93.21169248 130.14940713 -90.91649291 127.86063672 -88.62207031 125.57104492 C-82.925614 119.88788781 -77.22370741 114.21020913 -71.52197266 108.53234863 C-66.69378244 103.7239539 -61.86768926 98.91347257 -57.04431152 94.10025024 C-54.79364201 91.8560172 -52.53995969 89.61484077 -50.28613281 87.3737793 C-48.8937308 85.98501306 -47.50147082 84.5961044 -46.109375 83.20703125 C-45.18179382 82.28719955 -45.18179382 82.28719955 -44.23547363 81.3487854 C-40.49678452 77.61054414 -36.97783817 73.74539651 -33.559021 69.71177673 C-31.45144997 67.39770203 -28.97509876 65.65728199 -26.5 63.75 C-17.43514493 54.85922994 -16.40166082 40.96873518 -14 29 C-13.44038741 26.30161244 -12.87494053 23.60484 -12.29663086 20.91040039 C-11.98633398 19.44560506 -11.69142735 17.97741424 -11.41625977 16.50561523 C-10.50115821 11.96952723 -5.83336026 0 0 0 Z " fill="#020202" transform="translate(456,395)"/>
<path d="M0 0 C0.66 0 1.32 0 2 0 C2.14954132 0.87441238 2.29908264 1.74882477 2.45315552 2.6497345 C3.89340006 11.07119561 5.33371329 19.49264497 6.77409554 27.91408253 C7.65707701 33.07659837 8.54002006 38.23912078 9.42287064 43.40165901 C9.70904868 45.07493052 9.99528082 46.74819277 10.28156662 48.42144585 C10.99828286 52.61062756 11.7142184 56.79993965 12.42852783 60.98953247 C13.71412085 68.524309 15.00586245 76.05775897 16.33057594 83.58577061 C16.8986787 86.81543974 17.46273233 90.04581078 18.02660751 93.27622032 C18.29201399 94.7893286 18.55953034 96.30206855 18.829319 97.81440163 C19.20124643 99.89970822 19.5659378 101.98616707 19.92919922 104.07299805 C20.24061356 105.83379951 20.24061356 105.83379951 20.55831909 107.63017273 C21 111 21 111 21 118 C5.82 118 -9.36 118 -25 118 C-27.61475687 75.12809265 -27.92581443 42.80218736 -3.11367798 5.76977539 C-1.93786949 3.90126675 -0.95644553 1.9884386 0 0 Z " fill="#040404" transform="translate(460,564)"/>
<path d="M0 0 C0.66 0 1.32 0 2 0 C21.13289585 28.61877528 28.3833847 52.01729469 27.5 86 C27.47945557 86.79595833 27.45891113 87.59191666 27.43774414 88.41199493 C27.1637368 98.29404332 26.61140825 108.12688901 26 118 C11.15 118 -3.7 118 -19 118 C-19 113.24083604 -18.89760644 109.52673887 -18.1171875 104.96850586 C-17.92251389 103.81463379 -17.72784027 102.66076172 -17.52726746 101.47192383 C-17.3120192 100.2320874 -17.09677094 98.99225098 -16.875 97.71484375 C-16.64948195 96.39168439 -16.42446209 95.06844004 -16.1999054 93.74511719 C-15.59782449 90.20594426 -14.98857737 86.66804034 -14.37784195 83.13035202 C-13.74677627 79.46788506 -13.1222507 75.80430278 -12.49682617 72.14086914 C-11.00731282 63.42561577 -9.50524289 54.71254854 -8 46 C-7.66890228 44.0826001 -7.66890228 44.0826001 -7.33111572 42.12646484 C-4.90480932 28.08126235 -2.46278683 14.03885159 0 0 Z " fill="#020202" transform="translate(562,564)"/>
<path d="M0 0 C0 14.19 0 28.38 0 43 C-11.25623583 43 -11.25623583 43 -15.5234375 42.44921875 C-16.4707373 42.32933594 -17.41803711 42.20945312 -18.39404297 42.0859375 C-19.37775879 41.95445312 -20.36147461 41.82296875 -21.375 41.6875 C-22.94918701 41.48447266 -22.94918701 41.48447266 -24.55517578 41.27734375 C-31.8004431 40.32987728 -39.02248847 39.25843959 -46.24145508 38.13012695 C-54.63535145 36.84633476 -63.06809353 35.91554775 -71.50927734 35.00195312 C-72.56969238 34.88529297 -73.63010742 34.76863281 -74.72265625 34.6484375 C-75.66890869 34.54708496 -76.61516113 34.44573242 -77.59008789 34.34130859 C-80 34 -80 34 -83 33 C-83 25.74 -83 18.48 -83 11 C-67.29974969 8.40062081 -51.57484739 6.01378703 -35.82540894 3.73269653 C-33.61636794 3.41204531 -31.40764353 3.08920518 -29.19924927 2.76412964 C-26.03997503 2.29987885 -22.87957251 1.84419969 -19.71875 1.390625 C-18.77257309 1.25018265 -17.82639618 1.1097403 -16.85154724 0.96504211 C-15.50093956 0.77400154 -15.50093956 0.77400154 -14.12304688 0.57910156 C-13.34795776 0.46681213 -12.57286865 0.35452271 -11.77429199 0.23883057 C-7.86318647 -0.0978649 -3.92557132 0 0 0 Z " fill="#040404" transform="translate(412,602)"/>
<path d="M0 0 C14.62628436 1.1250988 14.62628436 1.1250988 20.27148438 1.92382812 C21.53569214 2.10071167 22.7998999 2.27759521 24.10241699 2.45983887 C25.43288003 2.65017859 26.76332393 2.84065206 28.09375 3.03125 C29.49804309 3.22952261 30.90238164 3.42747351 32.3067627 3.62512207 C35.22146898 4.03616762 38.13578393 4.44984546 41.04980469 4.86572266 C44.77573647 5.39742773 48.50234007 5.92423242 52.2292099 6.44931793 C55.11704296 6.85641163 58.00464476 7.26512504 60.89216614 7.67442322 C62.26679019 7.86925699 63.64145398 8.06381063 65.01615906 8.2580719 C66.93220981 8.52927025 68.84794787 8.80267498 70.76367188 9.07617188 C71.85031128 9.23081909 72.93695068 9.38546631 74.05651855 9.5447998 C76.7167867 9.95620195 79.36038349 10.4720767 82 11 C82 18.26 82 25.52 82 33 C75.9709116 34.20581768 70.31069567 35.29989236 64.26171875 36 C63.5742305 36.08121094 62.88674225 36.16242187 62.17842102 36.24609375 C60.01520542 36.50120114 57.85143257 36.75105416 55.6875 37 C46.70510642 38.04108331 37.75404016 39.13751282 28.82104492 40.55371094 C25.15706219 41.13335269 21.49089545 41.6447121 17.8125 42.125 C15.93498047 42.37636719 15.93498047 42.37636719 14.01953125 42.6328125 C9.36413582 43.05808672 4.67477965 43 0 43 C0 28.81 0 14.62 0 0 Z " fill="#020202" transform="translate(612,602)"/>
<path d="M0 0 C17.49 0 34.98 0 53 0 C53 2.64 53 5.28 53 8 C50.69 8 48.38 8 46 8 C46 16.58 46 25.16 46 34 C33.13 34 20.26 34 7 34 C7 25.42 7 16.84 7 8 C4.69 8 2.38 8 0 8 C0 5.36 0 2.72 0 0 Z " fill="#ECEDED" transform="translate(541,698)"/>
<path d="M0 0 C17.49 0 34.98 0 53 0 C53 2.64 53 5.28 53 8 C50.69 8 48.38 8 46 8 C46 16.58 46 25.16 46 34 C33.13 34 20.26 34 7 34 C7 25.42 7 16.84 7 8 C4.69 8 2.38 8 0 8 C0 5.36 0 2.72 0 0 Z " fill="#F1F1F2" transform="translate(430,698)"/>
<path d="M0 0 C6.40573263 3.80526761 11.08163335 8.65658984 12.97265625 16.05859375 C14.06660557 24.47724718 12.87300055 31.07405239 7.97265625 38.05859375 C4.712262 42.03093513 1.58392326 44.28825276 -3.52734375 45.18359375 C-8.28366032 45.40199604 -11.40011078 44.07073484 -15.02734375 41.05859375 C-20.34137666 36.0264724 -22.23408201 30.55513942 -22.5090332 23.29785156 C-22.57949002 15.40293093 -21.7137988 9.90598621 -16.02734375 4.05859375 C-11.37490033 -0.26926059 -6.23898025 -2.89709873 0 0 Z " fill="#040404" transform="translate(517.02734375,338.94140625)"/>
<path d="M0 0 C1.97806641 -0.00773437 1.97806641 -0.00773437 3.99609375 -0.015625 C7.5625 0.25 7.5625 0.25 11.5625 2.25 C11.5625 16.11 11.5625 29.97 11.5625 44.25 C10.2425 43.92 8.9225 43.59 7.5625 43.25 C5.2306682 43.15650674 2.89620009 43.12005572 0.5625 43.125 C-0.654375 43.12242187 -1.87125 43.11984375 -3.125 43.1171875 C-5.81883878 43.22519519 -7.87633836 43.5476335 -10.4375 44.25 C-10.51151579 38.30520371 -10.56603813 32.36067407 -10.60229492 26.41552734 C-10.61740526 24.39204234 -10.63789437 22.3685902 -10.66381836 20.34521484 C-10.70010328 17.44099835 -10.71720355 14.53721385 -10.73046875 11.6328125 C-10.74595261 10.72443634 -10.76143646 9.81606018 -10.77738953 8.88015747 C-10.77761612 8.03943695 -10.77784271 7.19871643 -10.77807617 6.33251953 C-10.78473801 5.59083527 -10.79139984 4.849151 -10.79826355 4.08499146 C-10.67921158 3.47944427 -10.56015961 2.87389709 -10.4375 2.25 C-6.82740719 -0.15672854 -4.16774719 -0.04795107 0 0 Z " fill="#020202" transform="translate(511.4375,288.75)"/>
<path d="M0 0 C0.99 0 1.98 0 3 0 C2.3893525 6.50700726 1.27996678 12.69966471 -0.1875 19.0625 C-1.79186354 26.1648161 -3.26472313 33.27667599 -4.55859375 40.44140625 C-4.68918686 41.16044632 -4.81977997 41.87948639 -4.95433044 42.62031555 C-5.60162448 46.19398846 -6.23664122 49.76931835 -6.85620117 53.34790039 C-7.09387004 54.6721039 -7.33189103 55.99624428 -7.5703125 57.3203125 C-7.87606201 59.07239014 -7.87606201 59.07239014 -8.18798828 60.85986328 C-9.61370549 66.37326519 -12.12281994 69.44686377 -16.625 72.8125 C-17.81996094 73.71935547 -17.81996094 73.71935547 -19.0390625 74.64453125 C-21 76 -21 76 -22 76 C-22 60.16 -22 44.32 -22 28 C-18.7 26.35 -15.4 24.7 -12 23 C-5.06673533 16.40221587 -1.69965923 9.38145241 0 0 Z " fill="#070707" transform="translate(538,363)"/>
<path d="M0 0 C1.32 0 2.64 0 4 0 C4.3403125 1.918125 4.3403125 1.918125 4.6875 3.875 C6.48675027 11.80919389 9.62216975 18.51582972 15.9609375 23.74609375 C18.79752311 25.49043088 21.93924292 26.68824697 25 28 C25 43.51 25 59.02 25 75 C20.53201943 73.21280777 17.03078494 71.73530951 14 68 C10.91824585 60.60523012 9.70022165 52.31507762 8.125 44.5 C7.86960449 43.24783691 7.61420898 41.99567383 7.35107422 40.70556641 C5.57119784 31.93623119 3.83186326 23.15882867 2.125 14.375 C1.9098877 13.27349609 1.69477539 12.17199219 1.47314453 11.03710938 C1.27833496 10.02197266 1.08352539 9.00683594 0.8828125 7.9609375 C0.71152832 7.07196777 0.54024414 6.18299805 0.36376953 5.26708984 C0 3 0 3 0 0 Z " fill="#050505" transform="translate(483,363)"/>
<path d="M0 0 C4.98666831 1.24666708 8.2332654 3.53919109 11.203125 7.67578125 C18.95546374 20.72169457 16.10270703 35.71285668 14 50 C12.22888156 49.52188823 10.45811517 49.0424722 8.6875 48.5625 C7.70136719 48.29566406 6.71523438 48.02882813 5.69921875 47.75390625 C3.78482474 47.21920575 1.88566385 46.62855462 0 46 C0 30.82 0 15.64 0 0 Z " fill="#060505" transform="translate(516,562)"/>
<path d="M0 0 C0 15.51 0 31.02 0 47 C-12 51 -12 51 -14 51 C-16.52857425 36.75419326 -19.31703668 20.52450481 -10.57421875 7.94921875 C-4.20496894 0 -4.20496894 0 0 0 Z " fill="#070707" transform="translate(508,561)"/>
<path d="M0 0 C2.64 0 5.28 0 8 0 C8 20.13 8 40.26 8 61 C5.36 61 2.72 61 0 61 C0 40.87 0 20.74 0 0 Z " fill="#F3F3F4" transform="translate(473,466)"/>
<path d="M0 0 C0 16.83 0 33.66 0 51 C-1.98 51 -3.96 51 -6 51 C-7.00920405 44.00130138 -8.00915208 37.00132135 -9 30 C-9.10634766 29.24976563 -9.21269531 28.49953125 -9.32226562 27.7265625 C-10.48093514 19.49764431 -11.41336317 11.29010472 -12 3 C-10.56445975 2.49440092 -9.1264798 1.9957251 -7.6875 1.5 C-6.88699219 1.2215625 -6.08648437 0.943125 -5.26171875 0.65625 C-3 0 -3 0 0 0 Z " fill="#0A0A09" transform="translate(508,616)"/>
<path d="M0 0 C4.60057086 0.92011417 7.79672559 2.10440566 12 4 C11.33682899 12.96518128 10.12083315 21.83500548 8.84326172 30.72851562 C8.49581109 33.15424488 8.15593141 35.58096268 7.81640625 38.0078125 C7.59680703 39.54954374 7.37677152 41.09121291 7.15625 42.6328125 C7.00464417 43.72168259 7.00464417 43.72168259 6.84997559 44.83255005 C6.11462406 49.88537594 6.11462406 49.88537594 5 51 C3.35 51 1.7 51 0 51 C0 34.17 0 17.34 0 0 Z " fill="#070606" transform="translate(516,616)"/>
<path d="M0 0 C7.59 0 15.18 0 23 0 C23 6.27 23 12.54 23 19 C15.41 19 7.82 19 0 19 C0 12.73 0 6.46 0 0 Z " fill="#101011" transform="translate(445,705)"/>
<path d="M0 0 C7.26 0 14.52 0 22 0 C22 5.94 22 11.88 22 18 C14.74 18 7.48 18 0 18 C0 12.06 0 6.12 0 0 Z " fill="#070707" transform="translate(556,706)"/>
<path d="M0 0 C2 1 2 1 2.89453125 3.17578125 C5.42160076 11.81083154 7.14233134 20.52737753 8.75 29.375 C8.97276611 30.58712158 9.19553223 31.79924316 9.42504883 33.0480957 C10.49251806 39.12139631 11.27543553 44.83330463 11 51 C9.35 51 7.7 51 6 51 C5.73445312 50.31292969 5.46890625 49.62585938 5.1953125 48.91796875 C4.84210937 48.01691406 4.48890625 47.11585938 4.125 46.1875 C3.77695312 45.29417969 3.42890625 44.40085937 3.0703125 43.48046875 C2.01167845 40.82288409 2.01167845 40.82288409 0 38 C-0.17207928 35.09815132 -0.23201104 32.29455753 -0.1953125 29.39453125 C-0.19106766 28.13572395 -0.19106766 28.13572395 -0.18673706 26.85148621 C-0.17554385 24.17167897 -0.15044101 21.49220619 -0.125 18.8125 C-0.11496908 16.99544754 -0.10584343 15.17838983 -0.09765625 13.36132812 C-0.07560734 8.90742325 -0.04108351 4.45376833 0 0 Z " fill="#151514" transform="translate(531,304)"/>
<path d="M0 0 C0.33 0 0.66 0 1 0 C1.12464234 5.08617453 1.21482392 10.17143856 1.2746582 15.25878906 C1.29962938 16.9851838 1.33361907 18.71147471 1.37719727 20.4375 C1.80427046 37.80179383 1.80427046 37.80179383 -2.81958008 45.09423828 C-4.04231023 47.06830893 -4.55750722 48.7340062 -5 51 C-6.65 51 -8.3 51 -10 51 C-10.11872861 45.42600422 -9.76429559 40.2381712 -8.8125 34.75 C-8.68302979 33.98856689 -8.55355957 33.22713379 -8.42016602 32.44262695 C-6.4996832 21.63950028 -4.43914698 10.08525098 0 0 Z " fill="#0E0F0E" transform="translate(492,304)"/>
<path d="M0 0 C2.97 0 5.94 0 9 0 C9 7.59 9 15.18 9 23 C6.03 23 3.06 23 0 23 C0 15.41 0 7.82 0 0 Z " fill="#E4E5E6" transform="translate(563,780)"/>
<path d="M0 0 C2.64 0 5.28 0 8 0 C8 7.59 8 15.18 8 23 C5.36 23 2.72 23 0 23 C0 15.41 0 7.82 0 0 Z " fill="#F3F4F4" transform="translate(508,729)"/>
<path d="M0 0 C2.64 0 5.28 0 8 0 C8 7.26 8 14.52 8 22 C5.36 22 2.72 22 0 22 C0 14.74 0 7.48 0 0 Z " fill="#F8F9F9" transform="translate(508,809)"/>
<path d="M0 0 C2.64 0 5.28 0 8 0 C8 7.26 8 14.52 8 22 C5.36 22 2.72 22 0 22 C0 14.74 0 7.48 0 0 Z " fill="#F8F9F9" transform="translate(453,781)"/>
<path d="M0 0 C2.64 0 5.28 0 8 0 C8 7.26 8 14.52 8 22 C5.36 22 2.72 22 0 22 C0 14.74 0 7.48 0 0 Z " fill="#F4F5F5" transform="translate(453,741)"/>
<path d="M0 0 C2.64 0 5.28 0 8 0 C8 6.93 8 13.86 8 21 C5.36 21 2.72 21 0 21 C0 14.07 0 7.14 0 0 Z " fill="#F9FAFA" transform="translate(508,770)"/>
<path d="M0 0 C2.64 0 5.28 0 8 0 C8 6.93 8 13.86 8 21 C5.36 21 2.72 21 0 21 C0 14.07 0 7.14 0 0 Z " fill="#F7F7F7" transform="translate(563,742)"/>
<path d="M0 0 C2.31 0 4.62 0 7 0 C7 2.97 7 5.94 7 9 C4.69 9 2.38 9 0 9 C0 6.03 0 3.06 0 0 Z " fill="#FEFEFE" transform="translate(473,446)"/>
<path d="M0 0 C0.99 0 1.98 0 3 0 C2.67 2.97 2.34 5.94 2 9 C1.01 8.34 0.02 7.68 -1 7 C-0.67 4.69 -0.34 2.38 0 0 Z " fill="#161716" transform="translate(538,363)"/>
</svg>
